# xmcd
#
# Track frame offsets:
#	150
#	15007
#	28112
#	33175
#	37640
#	42330
#	56047
#	62037
#	72475
#	89345
#	95292
#	109242
#	132397
#	182057
#
# Disc length: 2709 seconds
#
# Revision: 0
# Processed by: cddbd v1.5.2PL0 Copyright (c) Steve Scherf et al.
# Submitted via: audiograbber 1.83.01
#
DISCID=b10a930e
DTITLE=Thomas Wilbrandt - The Electric V - Spring and Summer [CD 1)
DYEAR=1984
DGENRE=Electronic
TTITLE0=Spring - The Crescendo Of Spring
TTITLE1=Spring - The Electric Bird
TTITLE2=Spring - Sketches Of Spring - Chant I
TTITLE3=Spring - Sketches Of Spring - Chant II
TTITLE4=Spring - Sketches Of Spring - Chant III
TTITLE5=Spring - Sketches Of Spring - The Movie
TTITLE6=Spring - Sketches Of Spring - Spring Water
TTITLE7=Spring - Sketches Of Spring - The Glass Bead Game
TTITLE8=Spring - Idyll
TTITLE9=Spring - Twilight
TTITLE10=Summer - The Heat
TTITLE11=Summer - "Hot Stuff"
TTITLE12=Summer - The Meditation
TTITLE13=Summer - Thunder And Lightning
EXTD=
EXTT0=
EXTT1=
EXTT2=
EXTT3=
EXTT4=
EXTT5=
EXTT6=
EXTT7=
EXTT8=
EXTT9=
EXTT10=
EXTT11=
EXTT12=
EXTT13=
PLAYORDER=
